# xmcd CD database file
#
# Track frame offsets:
#	150
#	16162
#	27695
#	47997
#	62692
#	76805
#	95020
#	119252
#	131200
#	146782
#	166462
#	183200
#	223855
#	246230
#	259362
#
# Disc length: 3695 seconds
#
# Revision: 0
# Processed by: cddbd v1.5PL3 Copyright (c) Steve Scherf et al.
# Submitted via: CDex 1.51
#
DISCID=e30e6d0f
DTITLE=beatles - the jazz beatles collection vol3
DYEAR=1997
DGENRE=Jazz
TTITLE0=michelle
TTITLE1=i´ll be back
TTITLE2=something
TTITLE3=help
TTITLE4=eleanor rigby
TTITLE5=oh darling
TTITLE6=roll over bethoven
TTITLE7=love
TTITLE8=yesterday
TTITLE9=starting over
TTITLE10=penny lane
TTITLE11=here comes the sun
TTITLE12=fool on the hill
TTITLE13=imagine
TTITLE14=norwegian wood
EXTD=YEAR: 1997
EXTT0=
EXTT1=
EXTT2=
EXTT3=
EXTT4=
EXTT5=
EXTT6=
EXTT7=
EXTT8=
EXTT9=
EXTT10=
EXTT11=
EXTT12=
EXTT13=
EXTT14=
PLAYORDER=
